<?xml version="1.0" encoding="utf-8"?>
<!-- Generator: Adobe Illustrator 14.0.0, SVG Export Plug-In . SVG Version: 6.00 Build 43363)  -->
<!DOCTYPE svg PUBLIC "-//W3C//DTD SVG 1.1 Basic//EN" "http://www.w3.org/Graphics/SVG/1.1/DTD/svg11-basic.dtd">
<svg version="1.1" baseProfile="basic" id="Layer_1"
	 xmlns="http://www.w3.org/2000/svg" xmlns:xlink="http://www.w3.org/1999/xlink" x="0px" y="0px" width="360px" height="360px"
	 viewBox="0 0 360 360" xml:space="preserve">
<path fill="#00215B" d="M147.82,181.746c-7.392,0-12.288-3.6-13.632-10.991l5.04-0.864c0.96,4.992,3.6,6.864,8.592,6.864
	c3.264,0,7.2-1.536,7.2-5.376c0-8.112-19.44-2.88-19.44-14.928c0-6.288,5.712-8.976,11.28-8.976c6.432,0,9.888,2.304,12.624,8.064
	l-4.608,2.112c-2.016-3.984-3.456-5.184-8.016-5.184c-2.64,0-6.192,0.72-6.192,3.984c0,6.576,19.44,2.16,19.44,14.928
	C160.108,178.146,153.964,181.746,147.82,181.746z"/>
<path fill="#00215B" d="M177.196,181.219v-0.768c-1.44,0.672-3.024,1.152-4.608,1.152c-6.72,0-9.84-3.744-9.84-10.176v-13.92h4.896
	v13.92c0,3.648,0.912,5.328,4.944,5.328c1.824,0,4.608-1.2,4.608-3.408v-15.84h4.896v23.712H177.196z"/>
<path fill="#00215B" d="M199.38,181.219v-13.44c0-1.68-0.144-3.168-0.864-4.176c-0.623-0.912-2.016-1.632-4.08-1.632
	c-1.92,0-3.312,0.816-4.031,1.968c-0.24,0.384-0.432,0.864-0.576,1.44v15.84h-4.896v-23.328h4.896v0.72
	c1.393-0.672,2.977-1.056,4.607-1.056c3.408,0,6.48,0.96,8.209,3.456c1.488,2.16,1.632,4.752,1.632,6.768v13.44H199.38z"/>
<path fill="#00215B" d="M207.404,178.771c-0.721-1.296-0.769-2.784-0.769-3.84v-27.216h4.512v27.216c0,1.296,0.048,1.44,1.776,1.44
	v4.848C210.092,181.219,208.315,180.451,207.404,178.771z"/>
<path fill="#00215B" d="M216.476,181.219v-23.712h4.944v23.712H216.476z"/>
<path fill="#00215B" d="M234.571,190.242c-4.56,0-10.849-2.352-9.456-9.264l4.704,1.44c-0.24,0.575,0.048,1.584,0.192,1.776
	c0.527,0.719,2.111,1.584,4.56,1.584c3.647,0,5.952-2.496,6.192-4.225c0.144-1.152-0.576-2.016-2.353-1.824
	c-0.575,0.096-1.344,0.24-2.112,0.384c-2.447,0.528-5.711,1.249-7.824-0.096c-2.832-1.824-2.207-5.568-0.239-7.728
	c-1.824-1.68-2.448-4.368-2.448-6.576c0-2.832,1.057-5.568,3.12-7.056c1.872-1.344,4.128-1.488,5.761-1.488
	c1.775,0,3.887,0.192,5.615,1.392c0.096-0.192,0.191-0.576,0.191-2.016h4.945c0,2.592-0.385,4.608-2.305,5.856
	c0.336,1.008,0.48,2.208,0.48,3.312c0,2.832-1.057,5.616-3.168,7.104c-1.92,1.392-4.225,1.488-5.76,1.488
	c-0.625,0-1.537-0.192-2.209-0.24c-1.199,0.864-1.344,1.392-1.152,1.968c0.145,0.384,0.816,0.72,1.537,0.576
	c1.056-0.144,2.16-0.336,2.496-0.432c1.056-0.336,1.775-0.576,2.496-0.72c4.463-0.72,8.928,2.256,7.68,7.392
	C245.42,183.234,243.5,190.242,234.571,190.242z M237.547,162.595c-0.623-0.432-1.68-0.816-2.879-0.816
	c-1.248,0-2.257,0.384-2.881,0.816c-0.527,0.384-1.056,1.536-1.056,3.12s0.528,3.024,1.056,3.408c0.624,0.432,1.633,0.96,2.881,0.96
	c1.199,0,2.256-0.528,2.879-0.96c0.576-0.384,1.104-1.824,1.104-3.408S238.075,162.979,237.547,162.595z"/>
<path fill="#00215B" d="M262.555,181.219v-13.2c0-1.728-0.145-3.312-0.864-4.32c-0.624-0.96-2.017-1.68-4.08-1.68
	c-1.872,0-3.312,0.816-3.983,1.968c-0.289,0.432-0.48,0.96-0.625,1.536v15.696h-4.896v-33.504h4.896v10.464
	c1.393-0.672,2.977-1.056,4.608-1.056c3.456,0,6.479,1.344,8.208,3.888c1.488,2.256,1.633,4.944,1.633,7.008v13.2H262.555z"/>
<path fill="#00215B" d="M276.715,161.923v13.056c0,0.336-0.049,0.72,0.048,1.056c0.096,0.192,0.239,0.336,0.575,0.336h2.113v4.848
	h-2.113c-1.823,0-3.504-0.816-4.463-2.4c-0.816-1.296-0.865-2.784-0.865-3.84v-13.056h-2.879v-4.417h2.879v-6.336h4.705v6.336h3.264
	v4.417H276.715z"/>
<path fill="#00215B" d="M90.671,196.658v9.024h15.024v4.608H90.671v14.928h-5.04v-33.504h21.792v4.943H90.671z"/>
<path fill="#00215B" d="M126.573,221.427c-1.728,2.735-4.944,4.224-8.592,4.224c-3.6,0.049-6.912-1.488-8.64-4.224
	c-1.536-2.496-1.68-5.761-1.68-7.824c0-2.256,0.192-5.424,1.68-7.823c1.728-2.785,4.992-4.273,8.64-4.273s6.816,1.488,8.592,4.273
	c1.488,2.399,1.68,5.52,1.68,7.775C128.252,215.666,128.108,218.931,126.573,221.427z M122.349,208.227
	c-0.72-1.2-2.256-1.968-4.416-1.968c-2.112,0-3.648,0.768-4.368,1.968c-0.816,1.296-0.96,3.359-0.96,5.376
	c0,1.872,0.144,4.032,0.96,5.328c0.768,1.2,2.256,2.017,4.368,2.017c2.16,0,3.696-0.816,4.416-2.017
	c0.816-1.296,0.96-3.504,0.96-5.328C123.309,211.586,123.165,209.475,122.349,208.227z"/>
<path fill="#00215B" d="M145.341,225.219v-0.768c-1.44,0.672-3.024,1.151-4.608,1.151c-6.72,0-9.84-3.743-9.84-10.176v-13.921h4.896
	v13.921c0,3.647,0.912,5.328,4.944,5.328c1.824,0,4.608-1.2,4.608-3.408v-15.841h4.896v23.713H145.341z"/>
<path fill="#00215B" d="M168.524,225.219v-13.439c0-1.681-0.144-3.168-0.864-4.177c-0.624-0.912-2.016-1.632-4.08-1.632
	c-1.92,0-3.312,0.816-4.032,1.968c-0.24,0.384-0.432,0.864-0.576,1.44v15.84h-4.896v-23.328h4.896v0.72
	c1.392-0.672,2.976-1.056,4.608-1.056c3.408,0,6.48,0.96,8.208,3.456c1.488,2.159,1.632,4.752,1.632,6.769v13.439H168.524z"/>
<path fill="#00215B" d="M191.42,225.891l-0.479-1.584c-1.536,0.912-3.312,1.393-5.232,1.393c-3.552-0.049-6.624-1.633-8.304-4.465
	c-1.44-2.543-1.584-5.664-1.584-7.824c0-2.352,0.144-5.328,1.584-7.775c1.68-2.928,4.752-4.465,8.304-4.465
	c1.632,0,3.216,0.336,4.608,1.009v-10.464h4.943v29.904l0.865,2.879L191.42,225.891z M189.74,208.035
	c-0.72-1.201-2.111-2.017-4.032-2.017c-1.92,0-3.312,0.815-4.032,2.017c-0.768,1.344-0.912,3.312-0.912,5.375
	c-0.048,1.92,0.096,3.984,0.912,5.377c0.721,1.199,2.112,2.016,4.032,2.016c1.921,0,3.312-0.768,4.032-2.016
	c0.288-0.528,0.48-1.248,0.576-2.112v-6.528C190.221,209.283,190.028,208.562,189.74,208.035z"/>
<path fill="#00215B" d="M211.779,225.65l-0.383-1.248c-1.488,0.721-3.553,1.297-5.904,1.297c-4.465,0-8.448-3.168-8.448-7.393
	s3.937-7.584,8.448-7.584h3.888c0.672,0,1.056-0.191,1.392-0.384v-2.064c0-1.056-1.344-2.304-3.552-2.304
	c-1.872,0-3.888,0.432-4.896,3.023l-4.705-1.392c1.824-5.088,6.097-6.384,9.601-6.384c4.416,0,8.448,2.928,8.448,7.056v13.44
	l0.816,2.592L211.779,225.65z M210.771,215.091c-0.432,0.096-0.863,0.144-1.392,0.144h-3.888c-2.16,0-3.553,1.776-3.553,3.072
	c0,1.248,1.393,2.832,3.553,2.832c2.447,0,4.08-0.624,5.279-1.729V215.091z"/>
<path fill="#00215B" d="M224.268,205.923v13.056c0,0.336-0.049,0.721,0.048,1.057c0.096,0.191,0.239,0.336,0.575,0.336h2.113v4.848
	h-2.113c-1.823,0-3.504-0.816-4.463-2.4c-0.816-1.295-0.865-2.783-0.865-3.84v-13.056h-2.879v-4.417h2.879v-6.336h4.705v6.336h3.264
	v4.417H224.268z"/>
<path fill="#00215B" d="M232.083,225.219v-23.713h4.944v23.713H232.083z"/>
<path fill="#00215B" d="M258.443,221.427c-1.729,2.735-4.945,4.224-8.593,4.224c-3.601,0.049-6.912-1.488-8.64-4.224
	c-1.536-2.496-1.68-5.761-1.68-7.824c0-2.256,0.191-5.424,1.68-7.823c1.728-2.785,4.992-4.273,8.64-4.273s6.815,1.488,8.593,4.273
	c1.487,2.399,1.68,5.52,1.68,7.775C260.123,215.666,259.979,218.931,258.443,221.427z M254.219,208.227
	c-0.721-1.2-2.256-1.968-4.416-1.968c-2.112,0-3.648,0.768-4.368,1.968c-0.815,1.296-0.96,3.359-0.96,5.376
	c0,1.872,0.145,4.032,0.96,5.328c0.769,1.2,2.256,2.017,4.368,2.017c2.16,0,3.695-0.816,4.416-2.017
	c0.816-1.296,0.96-3.504,0.96-5.328C255.179,211.586,255.035,209.475,254.219,208.227z"/>
<path fill="#00215B" d="M277.451,225.219v-13.439c0-1.681-0.145-3.168-0.864-4.177c-0.624-0.912-2.017-1.632-4.08-1.632
	c-1.92,0-3.312,0.816-4.032,1.968c-0.24,0.384-0.432,0.864-0.576,1.44v15.84h-4.896v-23.328h4.896v0.72
	c1.393-0.672,2.977-1.056,4.608-1.056c3.408,0,6.479,0.96,8.208,3.456c1.488,2.159,1.633,4.752,1.633,6.769v13.439H277.451z"/>
<radialGradient id="SVGID_1_" cx="105.9355" cy="161.709" r="19.7768" gradientUnits="userSpaceOnUse">
	<stop  offset="0.1382" style="stop-color:#F6CCAC"/>
	<stop  offset="0.5412" style="stop-color:#EC9A61"/>
	<stop  offset="0.8532" style="stop-color:#E67B2F"/>
	<stop  offset="1" style="stop-color:#E36F1E"/>
</radialGradient>
<rect x="85.737" y="142.363" fill-rule="evenodd" clip-rule="evenodd" fill="url(#SVGID_1_)" width="40.397" height="38.692"/>
<g>
	<linearGradient id="SVGID_2_" gradientUnits="userSpaceOnUse" x1="114.585" y1="174.5439" x2="131.042" y2="174.5439">
		<stop  offset="0.1895" style="stop-color:#F7CFB0"/>
		<stop  offset="0.2263" style="stop-color:#F7D3B7"/>
		<stop  offset="0.3943" style="stop-color:#FBE4D2"/>
		<stop  offset="0.5629" style="stop-color:#FDF1E8"/>
		<stop  offset="0.7311" style="stop-color:#FFFAF7"/>
		<stop  offset="0.8987" style="stop-color:#FFFFFF"/>
	</linearGradient>
	<polygon fill-rule="evenodd" clip-rule="evenodd" fill="url(#SVGID_2_)" points="131.042,181.381 115.082,167.707 114.585,168.814 
			"/>
	
		<linearGradient id="SVGID_3_" gradientUnits="userSpaceOnUse" x1="-2071.8945" y1="789.9727" x2="-2041.0605" y2="789.9727" gradientTransform="matrix(0 -1 1 0 -660.2773 -1872.2461)">
		<stop  offset="0.0111" style="stop-color:#F9DBC4"/>
		<stop  offset="0.3648" style="stop-color:#F9DDC6"/>
		<stop  offset="0.5987" style="stop-color:#FAE2CF"/>
		<stop  offset="0.7979" style="stop-color:#FCECDF"/>
		<stop  offset="0.9767" style="stop-color:#FFFBF8"/>
		<stop  offset="1" style="stop-color:#FFFFFF"/>
	</linearGradient>
	<polygon fill-rule="evenodd" clip-rule="evenodd" fill="url(#SVGID_3_)" points="145.708,199.648 114.585,168.814 113.685,169.566 
			"/>
	
		<linearGradient id="SVGID_4_" gradientUnits="userSpaceOnUse" x1="-2076.5557" y1="762.4092" x2="-2044.9014" y2="762.4092" gradientTransform="matrix(0 -1 1 0 -660.2773 -1872.2461)">
		<stop  offset="0" style="stop-color:#F7CFB0"/>
		<stop  offset="0.3511" style="stop-color:#F9DCC5"/>
		<stop  offset="1" style="stop-color:#FFFFFF"/>
	</linearGradient>
	<polygon fill-rule="evenodd" clip-rule="evenodd" fill="url(#SVGID_4_)" points="98.832,204.31 105.432,172.655 103.698,175.222 	
		"/>
	<linearGradient id="SVGID_5_" gradientUnits="userSpaceOnUse" x1="113.6851" y1="197.4004" x2="158.9727" y2="197.4004">
		<stop  offset="0.0764" style="stop-color:#FFFFFF"/>
		<stop  offset="0.6436" style="stop-color:#F9DEC8"/>
		<stop  offset="1" style="stop-color:#F7CFB0"/>
	</linearGradient>
	<polygon opacity="0.83" fill-rule="evenodd" clip-rule="evenodd" fill="url(#SVGID_5_)" points="116.159,174.713 152.922,225.234 
		158.973,225.219 115.266,171.651 113.685,169.566 114.498,172.596 	"/>
	
		<linearGradient id="SVGID_6_" gradientUnits="userSpaceOnUse" x1="-2049.7534" y1="790.6797" x2="-2037.7554" y2="790.6797" gradientTransform="matrix(0 -1 1 0 -660.2773 -1872.2461)">
		<stop  offset="0.0037" style="stop-color:#EEA36D"/>
		<stop  offset="0.1584" style="stop-color:#F3BB90"/>
		<stop  offset="0.3466" style="stop-color:#F8D5BA"/>
		<stop  offset="0.5141" style="stop-color:#FCEADB"/>
		<stop  offset="0.6527" style="stop-color:#FEF8F2"/>
		<stop  offset="0.7454" style="stop-color:#FFFFFF"/>
	</linearGradient>
	<polygon fill-rule="evenodd" clip-rule="evenodd" fill="url(#SVGID_6_)" points="144.73,177.507 116.077,165.509 118.044,167.872 	
		"/>
	
		<linearGradient id="SVGID_7_" gradientUnits="userSpaceOnUse" x1="-2085.6562" y1="808.6562" x2="-2039.9531" y2="808.6562" gradientTransform="matrix(0 -1 1 0 -660.2773 -1872.2461)">
		<stop  offset="0.0764" style="stop-color:#FFFFFF"/>
		<stop  offset="0.3937" style="stop-color:#F9DAC2"/>
		<stop  offset="0.8049" style="stop-color:#F2B689"/>
		<stop  offset="1" style="stop-color:#EFA875"/>
	</linearGradient>
	<polygon opacity="0.9" fill-rule="evenodd" clip-rule="evenodd" fill="url(#SVGID_7_)" points="117.118,168.875 180.764,213.41 
		181.676,208.035 119.34,168.768 118.044,167.872 115.082,167.707 	"/>
	
		<linearGradient id="SVGID_8_" gradientUnits="userSpaceOnUse" x1="-2044.418" y1="789.6797" x2="-2036.6689" y2="789.6797" gradientTransform="matrix(0 -1 1 0 -660.2773 -1872.2461)">
		<stop  offset="0.0764" style="stop-color:#FFFFFF"/>
		<stop  offset="0.091" style="stop-color:#FFFDFB"/>
		<stop  offset="0.708" style="stop-color:#F7D3B7"/>
		<stop  offset="1" style="stop-color:#F5C5A0"/>
	</linearGradient>
	<polygon fill-rule="evenodd" clip-rule="evenodd" fill="url(#SVGID_8_)" points="142.728,172.172 116.572,164.423 116.077,165.509 
			"/>
	
		<linearGradient id="SVGID_9_" gradientUnits="userSpaceOnUse" x1="-2078.8613" y1="770.4785" x2="-2044.9023" y2="770.4785" gradientTransform="matrix(0 -1 1 0 -660.2773 -1872.2461)">
		<stop  offset="0.0184" style="stop-color:#F7CFB0"/>
		<stop  offset="0.362" style="stop-color:#F9DFC9"/>
		<stop  offset="1" style="stop-color:#FFFFFF"/>
	</linearGradient>
	<polygon fill-rule="evenodd" clip-rule="evenodd" fill="url(#SVGID_9_)" points="112.742,206.615 109.385,175.221 107.66,172.656 	
		"/>
	
		<linearGradient id="SVGID_10_" gradientUnits="userSpaceOnUse" x1="-2080.5977" y1="767.8379" x2="-2044.9023" y2="767.8379" gradientTransform="matrix(0 -1 1 0 -660.2773 -1872.2461)">
		<stop  offset="0.0764" style="stop-color:#FFFFFF"/>
		<stop  offset="0.3638" style="stop-color:#FDF0E6"/>
		<stop  offset="0.7022" style="stop-color:#FBE6D6"/>
		<stop  offset="0.9818" style="stop-color:#FAE3D0"/>
	</linearGradient>
	<polygon fill-rule="evenodd" clip-rule="evenodd" fill="url(#SVGID_10_)" points="108.575,208.352 107.66,172.656 106.545,172.918 
			"/>
	<linearGradient id="SVGID_11_" gradientUnits="userSpaceOnUse" x1="104.2349" y1="184.0801" x2="106.5449" y2="184.0801">
		<stop  offset="0.0764" style="stop-color:#FFFFFF"/>
		<stop  offset="0.2111" style="stop-color:#FDF1E7"/>
		<stop  offset="0.7464" style="stop-color:#F6CAA9"/>
		<stop  offset="1" style="stop-color:#F3BC93"/>
	</linearGradient>
	<polygon fill-rule="evenodd" clip-rule="evenodd" fill="url(#SVGID_11_)" points="104.235,195.504 106.545,172.918 
		105.432,172.655 	"/>
	<linearGradient id="SVGID_12_" gradientUnits="userSpaceOnUse" x1="109.3848" y1="198.4902" x2="126.5728" y2="198.4902">
		<stop  offset="0.0764" style="stop-color:#FFFFFF"/>
		<stop  offset="0.6436" style="stop-color:#F9DEC8"/>
		<stop  offset="1" style="stop-color:#F7CFB0"/>
	</linearGradient>
	<path opacity="0.86" fill-rule="evenodd" clip-rule="evenodd" fill="url(#SVGID_12_)" d="M122.359,224.859
		c2.375-1.062,3.5-2.266,4.213-3.433l-15.658-45.79l-1.017-3.516l-0.513,3.1L122.359,224.859z"/>
	
		<linearGradient id="SVGID_13_" gradientUnits="userSpaceOnUse" x1="-2074.8682" y1="776.5449" x2="-2044.0898" y2="776.5449" gradientTransform="matrix(0 -1 1 0 -660.2773 -1872.2461)">
		<stop  offset="0.1845" style="stop-color:#F7D2B5"/>
		<stop  offset="0.3874" style="stop-color:#F8D9C0"/>
		<stop  offset="0.7456" style="stop-color:#FCEBDE"/>
		<stop  offset="1" style="stop-color:#FFFFFF"/>
	</linearGradient>
	<polygon fill-rule="evenodd" clip-rule="evenodd" fill="url(#SVGID_13_)" points="122.638,202.622 111.002,171.844 
		109.898,172.121 	"/>
	
		<linearGradient id="SVGID_14_" gradientUnits="userSpaceOnUse" x1="-2075.3799" y1="780.0879" x2="-2043.3301" y2="780.0879" gradientTransform="matrix(0 -1 1 0 -660.2773 -1872.2461)">
		<stop  offset="0.0764" style="stop-color:#FFFFFF"/>
		<stop  offset="0.6056" style="stop-color:#FAE2D0"/>
		<stop  offset="1" style="stop-color:#F7D4B8"/>
	</linearGradient>
	<polygon fill-rule="evenodd" clip-rule="evenodd" fill="url(#SVGID_14_)" points="128.619,203.134 111.91,171.084 111.002,171.844 
			"/>
	
		<linearGradient id="SVGID_15_" gradientUnits="userSpaceOnUse" x1="-2075.042" y1="782.8467" x2="-2043.3301" y2="782.8467" gradientTransform="matrix(0 -1 1 0 -660.2773 -1872.2461)">
		<stop  offset="0" style="stop-color:#F9DAC1"/>
		<stop  offset="0.2696" style="stop-color:#FADFCA"/>
		<stop  offset="0.7118" style="stop-color:#FDEFE4"/>
		<stop  offset="1" style="stop-color:#FFFFFF"/>
	</linearGradient>
	<polygon fill-rule="evenodd" clip-rule="evenodd" fill="url(#SVGID_15_)" points="133.229,202.796 114.498,172.596 111.91,171.084 
			"/>
	<linearGradient id="SVGID_16_" gradientUnits="userSpaceOnUse" x1="111.9102" y1="148.0806" x2="119.1831" y2="148.0806">
		<stop  offset="0.0764" style="stop-color:#FFFFFF"/>
		<stop  offset="0.6436" style="stop-color:#F9DEC8"/>
		<stop  offset="1" style="stop-color:#F7CFB0"/>
	</linearGradient>
	<polygon fill-rule="evenodd" clip-rule="evenodd" fill="url(#SVGID_16_)" points="119.183,143.273 111.91,152.888 114.498,151.376 
			"/>
	<linearGradient id="SVGID_17_" gradientUnits="userSpaceOnUse" x1="113.6851" y1="144.0278" x2="130.7236" y2="144.0278">
		<stop  offset="0.0764" style="stop-color:#FFFFFF"/>
		<stop  offset="0.1477" style="stop-color:#FEF5EE"/>
		<stop  offset="0.3502" style="stop-color:#FAE3D1"/>
		<stop  offset="0.5577" style="stop-color:#F8D8BF"/>
		<stop  offset="0.7712" style="stop-color:#F7D1B4"/>
		<stop  offset="1" style="stop-color:#F7CFB0"/>
	</linearGradient>
	<polygon fill-rule="evenodd" clip-rule="evenodd" fill="url(#SVGID_17_)" points="130.724,133.639 114.498,151.376 
		113.685,154.417 	"/>
	<linearGradient id="SVGID_18_" gradientUnits="userSpaceOnUse" x1="113.6851" y1="151.75" x2="120.98" y2="151.75">
		<stop  offset="0.0738" style="stop-color:#F7CFB0"/>
		<stop  offset="0.2503" style="stop-color:#F9DBC4"/>
		<stop  offset="0.547" style="stop-color:#FCEDE0"/>
		<stop  offset="0.807" style="stop-color:#FEF9F4"/>
		<stop  offset="1" style="stop-color:#FFFFFF"/>
	</linearGradient>
	<polygon fill-rule="evenodd" clip-rule="evenodd" fill="url(#SVGID_18_)" points="120.98,148.321 113.685,154.417 114.586,155.18 	
		"/>
	
		<linearGradient id="SVGID_19_" gradientUnits="userSpaceOnUse" x1="-2041.4541" y1="793.1621" x2="-2035.4634" y2="793.1621" gradientTransform="matrix(0 -1 1 0 -660.2773 -1872.2461)">
		<stop  offset="0" style="stop-color:#F5C6A2"/>
		<stop  offset="0.3829" style="stop-color:#FAE2CE"/>
		<stop  offset="0.6848" style="stop-color:#FEF5EE"/>
		<stop  offset="0.8561" style="stop-color:#FFFFFF"/>
	</linearGradient>
	<polygon fill-rule="evenodd" clip-rule="evenodd" fill="url(#SVGID_19_)" points="149.199,169.208 116.572,163.217 
		116.572,164.423 	"/>
	<linearGradient id="SVGID_20_" gradientUnits="userSpaceOnUse" x1="111.002" y1="145.5264" x2="118.7549" y2="145.5264">
		<stop  offset="0.0627" style="stop-color:#F7CFB0"/>
		<stop  offset="0.3536" style="stop-color:#FAE4D2"/>
		<stop  offset="0.6302" style="stop-color:#FEF6EF"/>
		<stop  offset="0.7934" style="stop-color:#FFFFFF"/>
	</linearGradient>
	<polygon fill-rule="evenodd" clip-rule="evenodd" fill="url(#SVGID_20_)" points="118.755,138.165 111.002,152.139 111.91,152.888 
			"/>
	<linearGradient id="SVGID_21_" gradientUnits="userSpaceOnUse" x1="109.3838" y1="143.1045" x2="114.8325" y2="143.1045">
		<stop  offset="0.0764" style="stop-color:#FFFFFF"/>
		<stop  offset="0.6436" style="stop-color:#F9DEC8"/>
		<stop  offset="1" style="stop-color:#F7CFB0"/>
	</linearGradient>
	<polygon fill-rule="evenodd" clip-rule="evenodd" fill="url(#SVGID_21_)" points="114.833,134.342 109.384,148.764 
		109.898,151.867 	"/>
	<linearGradient id="SVGID_22_" gradientUnits="userSpaceOnUse" x1="109.8979" y1="147.5781" x2="113.9751" y2="147.5781">
		<stop  offset="0.0764" style="stop-color:#FFFFFF"/>
		<stop  offset="0.6436" style="stop-color:#F9DEC8"/>
		<stop  offset="1" style="stop-color:#F7CFB0"/>
	</linearGradient>
	<polygon fill-rule="evenodd" clip-rule="evenodd" fill="url(#SVGID_22_)" points="113.975,143.018 109.898,151.867 
		111.002,152.139 	"/>
	<linearGradient id="SVGID_23_" gradientUnits="userSpaceOnUse" x1="114.5859" y1="149.6816" x2="132.3555" y2="149.6816">
		<stop  offset="0.0764" style="stop-color:#FFFFFF"/>
		<stop  offset="0.6436" style="stop-color:#F9DEC8"/>
		<stop  offset="1" style="stop-color:#F7CFB0"/>
	</linearGradient>
	<polygon fill-rule="evenodd" clip-rule="evenodd" fill="url(#SVGID_23_)" points="132.355,143.098 114.586,155.18 115.082,156.266 
			"/>
	<linearGradient id="SVGID_24_" gradientUnits="userSpaceOnUse" x1="115.082" y1="153.6133" x2="125.5801" y2="153.6133">
		<stop  offset="0.1439" style="stop-color:#F7CFB0"/>
		<stop  offset="0.3722" style="stop-color:#FAE2CE"/>
		<stop  offset="0.5968" style="stop-color:#FDF0E6"/>
		<stop  offset="0.8101" style="stop-color:#FFFAF6"/>
		<stop  offset="1" style="stop-color:#FFFFFF"/>
	</linearGradient>
	<polygon fill-rule="evenodd" clip-rule="evenodd" fill="url(#SVGID_24_)" points="125.58,150.961 115.082,156.266 118.044,156.106 
			"/>
	<linearGradient id="SVGID_25_" gradientUnits="userSpaceOnUse" x1="116.5708" y1="157.3887" x2="144.9604" y2="157.3887">
		<stop  offset="0.1771" style="stop-color:#F7CFB0"/>
		<stop  offset="0.2601" style="stop-color:#F9DEC8"/>
		<stop  offset="0.3571" style="stop-color:#FCEBDD"/>
		<stop  offset="0.4659" style="stop-color:#FEF5EE"/>
		<stop  offset="0.5951" style="stop-color:#FFFCF9"/>
		<stop  offset="0.797" style="stop-color:#FFFFFF"/>
	</linearGradient>
	<polygon fill-rule="evenodd" clip-rule="evenodd" fill="url(#SVGID_25_)" points="144.96,154.005 116.571,159.55 116.572,160.772 	
		"/>
	
		<linearGradient id="SVGID_26_" gradientUnits="userSpaceOnUse" x1="-2036.9712" y1="793.6504" x2="-2034.2407" y2="793.6504" gradientTransform="matrix(0 -1 1 0 -660.2773 -1872.2461)">
		<stop  offset="0.0764" style="stop-color:#FFFFFF"/>
		<stop  offset="0.6922" style="stop-color:#F8D6BC"/>
		<stop  offset="1" style="stop-color:#F5C8A5"/>
	</linearGradient>
	<polygon fill-rule="evenodd" clip-rule="evenodd" fill="url(#SVGID_26_)" points="150.174,164.725 119.3,161.995 116.572,163.217 	
		"/>
	<linearGradient id="SVGID_27_" gradientUnits="userSpaceOnUse" x1="116.5718" y1="159.8857" x2="150.791" y2="159.8857">
		<stop  offset="0.0074" style="stop-color:#FFFFFF"/>
		<stop  offset="0.2921" style="stop-color:#FCECDF"/>
		<stop  offset="0.751" style="stop-color:#F8D7BD"/>
		<stop  offset="1" style="stop-color:#F7CFB0"/>
	</linearGradient>
	<polygon fill-rule="evenodd" clip-rule="evenodd" fill="url(#SVGID_27_)" points="150.791,157.777 116.572,160.772 119.3,161.995 	
		"/>
	
		<linearGradient id="SVGID_28_" gradientUnits="userSpaceOnUse" x1="-2030.71" y1="799.2061" x2="-2010.1167" y2="799.2061" gradientTransform="matrix(0 -1 1 0 -660.2773 -1872.2461)">
		<stop  offset="0.0764" style="stop-color:#FFFFFF"/>
		<stop  offset="0.6436" style="stop-color:#F9DEC8"/>
		<stop  offset="1" style="stop-color:#F7CFB0"/>
	</linearGradient>
	<polygon fill-rule="evenodd" clip-rule="evenodd" fill="url(#SVGID_28_)" points="161.781,137.871 118.044,156.106 
		116.077,158.464 	"/>
	<linearGradient id="SVGID_29_" gradientUnits="userSpaceOnUse" x1="116.0767" y1="156.606" x2="133.229" y2="156.606">
		<stop  offset="0.0764" style="stop-color:#FFFFFF"/>
		<stop  offset="0.6436" style="stop-color:#F9DEC8"/>
		<stop  offset="1" style="stop-color:#F7CFB0"/>
	</linearGradient>
	<polygon fill-rule="evenodd" clip-rule="evenodd" fill="url(#SVGID_29_)" points="133.229,153.662 116.077,158.464 116.571,159.55 
			"/>
	<linearGradient id="SVGID_30_" gradientUnits="userSpaceOnUse" x1="85.5176" y1="159.5635" x2="96.5215" y2="159.5635">
		<stop  offset="0" style="stop-color:#F7CFB0"/>
		<stop  offset="0.3118" style="stop-color:#F9DAC2"/>
		<stop  offset="0.9383" style="stop-color:#FEF9F5"/>
		<stop  offset="1" style="stop-color:#FFFFFF"/>
	</linearGradient>
	<polygon fill-rule="evenodd" clip-rule="evenodd" fill="url(#SVGID_30_)" points="85.518,158.355 96.521,160.772 96.521,159.55 	
		"/>
	<linearGradient id="SVGID_31_" gradientUnits="userSpaceOnUse" x1="92.2002" y1="149.5713" x2="99.3853" y2="149.5713">
		<stop  offset="0.0258" style="stop-color:#F7CFB0"/>
		<stop  offset="0.7846" style="stop-color:#FDF1E8"/>
		<stop  offset="1" style="stop-color:#FFFFFF"/>
	</linearGradient>
	<polygon fill-rule="evenodd" clip-rule="evenodd" fill="url(#SVGID_31_)" points="92.2,144.725 99.385,154.417 98.584,151.376 	"/>
	<linearGradient id="SVGID_32_" gradientUnits="userSpaceOnUse" x1="97.2153" y1="148.4385" x2="102.0752" y2="148.4385">
		<stop  offset="0.2251" style="stop-color:#F7CFB0"/>
		<stop  offset="0.3289" style="stop-color:#F9DEC8"/>
		<stop  offset="0.45" style="stop-color:#FCEBDD"/>
		<stop  offset="0.586" style="stop-color:#FEF5EE"/>
		<stop  offset="0.7476" style="stop-color:#FFFCF9"/>
		<stop  offset="1" style="stop-color:#FFFFFF"/>
	</linearGradient>
	<polygon fill-rule="evenodd" clip-rule="evenodd" fill="url(#SVGID_32_)" points="97.215,143.989 101.194,152.888 102.075,152.139 
			"/>
	<linearGradient id="SVGID_33_" gradientUnits="userSpaceOnUse" x1="84.8789" y1="148.3086" x2="99.3853" y2="148.3086">
		<stop  offset="0.0764" style="stop-color:#FFFFFF"/>
		<stop  offset="0.6436" style="stop-color:#F9DEC8"/>
		<stop  offset="1" style="stop-color:#F7CFB0"/>
	</linearGradient>
	<polygon fill-rule="evenodd" clip-rule="evenodd" fill="url(#SVGID_33_)" points="84.879,141.438 98.508,155.18 99.385,154.417 	
		"/>
	<linearGradient id="SVGID_34_" gradientUnits="userSpaceOnUse" x1="86.8721" y1="143.5645" x2="101.1938" y2="143.5645">
		<stop  offset="0.0764" style="stop-color:#FFFFFF"/>
		<stop  offset="0.6436" style="stop-color:#F9DEC8"/>
		<stop  offset="1" style="stop-color:#F7CFB0"/>
	</linearGradient>
	<polygon fill-rule="evenodd" clip-rule="evenodd" fill="url(#SVGID_34_)" points="86.872,134.241 98.584,151.376 101.194,152.888 	
		"/>
	<linearGradient id="SVGID_35_" gradientUnits="userSpaceOnUse" x1="78.7246" y1="151.0874" x2="98.0059" y2="151.0874">
		<stop  offset="0.0764" style="stop-color:#FFFFFF"/>
		<stop  offset="0.6436" style="stop-color:#F9DEC8"/>
		<stop  offset="1" style="stop-color:#F7CFB0"/>
	</linearGradient>
	<polygon fill-rule="evenodd" clip-rule="evenodd" fill="url(#SVGID_35_)" points="78.725,145.909 95.038,156.106 98.006,156.266 	
		"/>
	<linearGradient id="SVGID_36_" gradientUnits="userSpaceOnUse" x1="87.1138" y1="152.0435" x2="98.5078" y2="152.0435">
		<stop  offset="0.0258" style="stop-color:#F7CFB0"/>
		<stop  offset="0.7846" style="stop-color:#FDF1E8"/>
		<stop  offset="1" style="stop-color:#FFFFFF"/>
	</linearGradient>
	<polygon fill-rule="evenodd" clip-rule="evenodd" fill="url(#SVGID_36_)" points="87.114,147.821 98.006,156.266 98.508,155.18 	
		"/>
	<linearGradient id="SVGID_37_" gradientUnits="userSpaceOnUse" x1="100.8516" y1="142.6367" x2="105.4321" y2="142.6367">
		<stop  offset="0.0764" style="stop-color:#FFFFFF"/>
		<stop  offset="0.6436" style="stop-color:#F9DEC8"/>
		<stop  offset="1" style="stop-color:#F7CFB0"/>
	</linearGradient>
	<polygon fill-rule="evenodd" clip-rule="evenodd" fill="url(#SVGID_37_)" points="100.852,133.94 103.698,148.764 105.432,151.333 
			"/>
	<linearGradient id="SVGID_38_" gradientUnits="userSpaceOnUse" x1="106.5454" y1="144.749" x2="107.6602" y2="144.749">
		<stop  offset="0.0764" style="stop-color:#FFFFFF"/>
		<stop  offset="0.6436" style="stop-color:#F9DEC8"/>
		<stop  offset="1" style="stop-color:#F7CFB0"/>
	</linearGradient>
	<polygon fill-rule="evenodd" clip-rule="evenodd" fill="url(#SVGID_38_)" points="107.59,138.165 106.545,151.055 107.66,151.333 	
		"/>
	<linearGradient id="SVGID_39_" gradientUnits="userSpaceOnUse" x1="107.6602" y1="145.3115" x2="110.2988" y2="145.3115">
		<stop  offset="0.0764" style="stop-color:#FFFFFF"/>
		<stop  offset="0.6436" style="stop-color:#F9DEC8"/>
		<stop  offset="1" style="stop-color:#F7CFB0"/>
	</linearGradient>
	<polygon fill-rule="evenodd" clip-rule="evenodd" fill="url(#SVGID_39_)" points="107.66,151.333 109.384,148.764 110.299,139.291 
			"/>
	<linearGradient id="SVGID_40_" gradientUnits="userSpaceOnUse" x1="105.4321" y1="146.4004" x2="106.5454" y2="146.4004">
		<stop  offset="0.0764" style="stop-color:#FFFFFF"/>
		<stop  offset="0.6436" style="stop-color:#F9DEC8"/>
		<stop  offset="1" style="stop-color:#F7CFB0"/>
	</linearGradient>
	<polygon fill-rule="evenodd" clip-rule="evenodd" fill="url(#SVGID_40_)" points="105.493,141.468 105.432,151.333 
		106.545,151.055 	"/>
	<linearGradient id="SVGID_41_" gradientUnits="userSpaceOnUse" x1="97.231" y1="145.6045" x2="103.1953" y2="145.6045">
		<stop  offset="0.0764" style="stop-color:#FFFFFF"/>
		<stop  offset="0.6436" style="stop-color:#F9DEC8"/>
		<stop  offset="1" style="stop-color:#F7CFB0"/>
	</linearGradient>
	<polygon fill-rule="evenodd" clip-rule="evenodd" fill="url(#SVGID_41_)" points="97.231,139.069 102.075,152.139 103.195,151.867 
			"/>
	<linearGradient id="SVGID_42_" gradientUnits="userSpaceOnUse" x1="86.3154" y1="155.7759" x2="97.0054" y2="155.7759">
		<stop  offset="0" style="stop-color:#F7CFB0"/>
		<stop  offset="0.341" style="stop-color:#F9DEC9"/>
		<stop  offset="1" style="stop-color:#FFFFFF"/>
	</linearGradient>
	<polygon fill-rule="evenodd" clip-rule="evenodd" fill="url(#SVGID_42_)" points="86.315,153.088 97.005,158.463 95.038,156.106 	
		"/>
	<radialGradient id="SVGID_43_" cx="100.9277" cy="182.5977" r="7.6626" gradientUnits="userSpaceOnUse">
		<stop  offset="0.0037" style="stop-color:#FFFFFF"/>
		<stop  offset="0.2108" style="stop-color:#FEF8F4"/>
		<stop  offset="0.4958" style="stop-color:#FCECDF"/>
		<stop  offset="0.8245" style="stop-color:#F9DAC2"/>
		<stop  offset="1" style="stop-color:#F7CFB0"/>
	</radialGradient>
	<polygon fill-rule="evenodd" clip-rule="evenodd" fill="url(#SVGID_43_)" points="98.158,193.074 103.698,175.222 103.195,172.122 
			"/>
	<linearGradient id="SVGID_44_" gradientUnits="userSpaceOnUse" x1="99.8818" y1="145.8545" x2="103.6978" y2="145.8545">
		<stop  offset="0.2251" style="stop-color:#F7CFB0"/>
		<stop  offset="0.3289" style="stop-color:#F9DEC8"/>
		<stop  offset="0.45" style="stop-color:#FCEBDD"/>
		<stop  offset="0.586" style="stop-color:#FEF5EE"/>
		<stop  offset="0.7476" style="stop-color:#FFFCF9"/>
		<stop  offset="1" style="stop-color:#FFFFFF"/>
	</linearGradient>
	<polygon fill-rule="evenodd" clip-rule="evenodd" fill="url(#SVGID_44_)" points="99.882,139.841 103.195,151.867 103.698,148.764 
			"/>
	<linearGradient id="SVGID_45_" gradientUnits="userSpaceOnUse" x1="88.3799" y1="172.0967" x2="98.5078" y2="172.0967">
		<stop  offset="0" style="stop-color:#F7CFB0"/>
		<stop  offset="0.3118" style="stop-color:#F9DAC2"/>
		<stop  offset="0.9383" style="stop-color:#FEF9F5"/>
		<stop  offset="1" style="stop-color:#FFFFFF"/>
	</linearGradient>
	<polygon fill-rule="evenodd" clip-rule="evenodd" fill="url(#SVGID_45_)" points="88.38,176.486 98.508,168.814 98.006,167.708 	
		"/>
	<linearGradient id="SVGID_46_" gradientUnits="userSpaceOnUse" x1="91.8999" y1="174.1318" x2="99.3853" y2="174.1318">
		<stop  offset="0" style="stop-color:#F7CFB0"/>
		<stop  offset="0.3118" style="stop-color:#F9DAC2"/>
		<stop  offset="0.9383" style="stop-color:#FEF9F5"/>
		<stop  offset="1" style="stop-color:#FFFFFF"/>
	</linearGradient>
	<polygon fill-rule="evenodd" clip-rule="evenodd" fill="url(#SVGID_46_)" points="91.9,178.698 98.584,172.596 99.385,169.566 	"/>
	<linearGradient id="SVGID_47_" gradientUnits="userSpaceOnUse" x1="87.6758" y1="174.46" x2="99.3853" y2="174.46">
		<stop  offset="0.0764" style="stop-color:#FFFFFF"/>
		<stop  offset="0.6436" style="stop-color:#F9DEC8"/>
		<stop  offset="1" style="stop-color:#F7CFB0"/>
	</linearGradient>
	<polygon fill-rule="evenodd" clip-rule="evenodd" fill="url(#SVGID_47_)" points="87.676,180.105 99.385,169.566 98.508,168.814 	
		"/>
	<linearGradient id="SVGID_48_" gradientUnits="userSpaceOnUse" x1="84.3574" y1="157.3564" x2="97.0054" y2="157.3564">
		<stop  offset="0.0764" style="stop-color:#FFFFFF"/>
		<stop  offset="0.6436" style="stop-color:#F9DEC8"/>
		<stop  offset="1" style="stop-color:#F7CFB0"/>
	</linearGradient>
	<polygon fill-rule="evenodd" clip-rule="evenodd" fill="url(#SVGID_48_)" points="84.357,155.163 96.521,159.55 97.005,158.463 	
		"/>
	<linearGradient id="SVGID_49_" gradientUnits="userSpaceOnUse" x1="93.644" y1="179.2139" x2="102.0757" y2="179.2139">
		<stop  offset="0.0764" style="stop-color:#FFFFFF"/>
		<stop  offset="0.6436" style="stop-color:#F9DEC8"/>
		<stop  offset="1" style="stop-color:#F7CFB0"/>
	</linearGradient>
	<polygon fill-rule="evenodd" clip-rule="evenodd" fill="url(#SVGID_49_)" points="93.644,187.344 102.076,171.844 101.192,171.084 
			"/>
	<linearGradient id="SVGID_50_" gradientUnits="userSpaceOnUse" x1="95.0332" y1="181.9375" x2="103.1948" y2="181.9375">
		<stop  offset="0.3173" style="stop-color:#F7CFB0"/>
		<stop  offset="0.4088" style="stop-color:#F9DEC8"/>
		<stop  offset="0.5155" style="stop-color:#FCEBDD"/>
		<stop  offset="0.6353" style="stop-color:#FEF5EE"/>
		<stop  offset="0.7776" style="stop-color:#FFFCF9"/>
		<stop  offset="1" style="stop-color:#FFFFFF"/>
	</linearGradient>
	<polygon fill-rule="evenodd" clip-rule="evenodd" fill="url(#SVGID_50_)" points="95.033,192.032 103.195,172.122 102.076,171.844 
			"/>
	
		<linearGradient id="SVGID_51_" gradientUnits="userSpaceOnUse" x1="-2071.8311" y1="751.4531" x2="-2043.3301" y2="751.4531" gradientTransform="matrix(0 -1 1 0 -660.2773 -1872.2461)">
		<stop  offset="0.0764" style="stop-color:#FFFFFF"/>
		<stop  offset="0.6436" style="stop-color:#F9DEC8"/>
		<stop  offset="1" style="stop-color:#F7CFB0"/>
	</linearGradient>
	<polygon fill-rule="evenodd" clip-rule="evenodd" fill="url(#SVGID_51_)" points="81.16,199.585 101.192,171.084 98.584,172.596 	
		"/>
	<linearGradient id="SVGID_52_" gradientUnits="userSpaceOnUse" x1="84.5601" y1="164.6167" x2="96.5215" y2="164.6167">
		<stop  offset="0" style="stop-color:#F7CFB0"/>
		<stop  offset="0.3118" style="stop-color:#F9DAC2"/>
		<stop  offset="0.9383" style="stop-color:#FEF9F5"/>
		<stop  offset="1" style="stop-color:#FFFFFF"/>
	</linearGradient>
	<polygon fill-rule="evenodd" clip-rule="evenodd" fill="url(#SVGID_52_)" points="84.56,166.016 96.521,164.423 96.521,163.217 	
		"/>
	<linearGradient id="SVGID_53_" gradientUnits="userSpaceOnUse" x1="79.126" y1="173.3032" x2="98.0059" y2="173.3032">
		<stop  offset="0.0764" style="stop-color:#FFFFFF"/>
		<stop  offset="0.6436" style="stop-color:#F9DEC8"/>
		<stop  offset="1" style="stop-color:#F7CFB0"/>
	</linearGradient>
	<polygon fill-rule="evenodd" clip-rule="evenodd" fill="url(#SVGID_53_)" points="79.126,178.898 98.006,167.708 95.038,167.871 	
		"/>
	
		<linearGradient id="SVGID_54_" gradientUnits="userSpaceOnUse" x1="-2034.2407" y1="749.7012" x2="-2032.8354" y2="749.7012" gradientTransform="matrix(0 -1 1 0 -660.2773 -1872.2461)">
		<stop  offset="0.0764" style="stop-color:#FFFFFF"/>
		<stop  offset="0.6436" style="stop-color:#F9DEC8"/>
		<stop  offset="1" style="stop-color:#F7CFB0"/>
	</linearGradient>
	<polygon fill-rule="evenodd" clip-rule="evenodd" fill="url(#SVGID_54_)" points="82.326,160.589 93.771,161.995 96.521,160.772 	
		"/>
	<linearGradient id="SVGID_55_" gradientUnits="userSpaceOnUse" x1="84.8901" y1="162.606" x2="96.5215" y2="162.606">
		<stop  offset="0.0764" style="stop-color:#FFFFFF"/>
		<stop  offset="0.6436" style="stop-color:#F9DEC8"/>
		<stop  offset="1" style="stop-color:#F7CFB0"/>
	</linearGradient>
	<polygon fill-rule="evenodd" clip-rule="evenodd" fill="url(#SVGID_55_)" points="84.89,163.14 96.521,163.217 93.771,161.995 	"/>
	<linearGradient id="SVGID_56_" gradientUnits="userSpaceOnUse" x1="84.8789" y1="166.6558" x2="97.0039" y2="166.6558">
		<stop  offset="0.0764" style="stop-color:#FFFFFF"/>
		<stop  offset="0.6436" style="stop-color:#F9DEC8"/>
		<stop  offset="1" style="stop-color:#F7CFB0"/>
	</linearGradient>
	<polygon fill-rule="evenodd" clip-rule="evenodd" fill="url(#SVGID_56_)" points="84.879,168.889 97.004,165.508 96.521,164.423 	
		"/>
	<linearGradient id="SVGID_57_" gradientUnits="userSpaceOnUse" x1="83.9214" y1="169.0342" x2="97.0039" y2="169.0342">
		<stop  offset="0" style="stop-color:#F7CFB0"/>
		<stop  offset="0.0916" style="stop-color:#F8D5BA"/>
		<stop  offset="0.4847" style="stop-color:#FCECDF"/>
		<stop  offset="0.8014" style="stop-color:#FEFAF7"/>
		<stop  offset="1" style="stop-color:#FFFFFF"/>
		<stop  offset="1" style="stop-color:#FFFFFF"/>
	</linearGradient>
	<polygon fill-rule="evenodd" clip-rule="evenodd" fill="url(#SVGID_57_)" points="83.921,172.56 95.038,167.871 97.004,165.508 	
		"/>
</g>
<path fill="#00215B" d="M234.234,199.438c-1.632,0-2.928-1.297-2.928-2.929s1.296-2.928,2.928-2.928s2.928,1.296,2.928,2.928
	S235.866,199.438,234.234,199.438z"/>
<path fill="#00215B" d="M218.984,155.937c-1.632,0-2.928-1.296-2.928-2.928c0-1.632,1.296-2.928,2.928-2.928
	s2.928,1.296,2.928,2.928C221.912,154.641,220.616,155.937,218.984,155.937z"/>
</svg>
